# This file uses centimeters as units for non-parametric coordinates.

mtllib halfcylindermaya.mtl
g default
v -0.000000 -1.000000 1.000000
v -0.000000 -1.000000 0.884627
v 0.000000 1.000000 -1.000000
v 0.000000 1.000000 -0.884627
v -0.273365 -1.000000 0.841330
v -0.519971 -1.000000 0.715678
v -0.519971 1.000000 0.715678
v -0.273365 1.000000 0.841330
v -1.000000 1.000000 0.000000
v -0.951057 1.000000 0.309017
v -0.841330 1.000000 0.273365
v -0.884627 1.000000 0.000000
v -0.587785 -1.000000 0.809017
v -0.309017 -1.000000 0.951057
v -0.309017 1.000000 0.951057
v -0.587785 1.000000 0.809017
v -0.809017 1.000000 0.587785
v -0.715678 1.000000 0.519971
v -0.000000 1.000000 0.884627
v -0.000000 1.000000 1.000000
v -0.715678 -1.000000 0.519971
v -0.809017 -1.000000 0.587785
v -0.309017 1.000000 -0.951057
v -0.273365 1.000000 -0.841330
v -0.951057 1.000000 -0.309017
v -0.841330 1.000000 -0.273365
v -0.715678 1.000000 -0.519971
v -0.809017 1.000000 -0.587785
v -0.587785 1.000000 -0.809017
v -0.519971 1.000000 -0.715678
v -0.951057 -1.000000 0.309017
v -0.841330 -1.000000 0.273365
v -0.884627 -1.000000 0.000000
v 0.000000 -1.000000 -0.884627
v -1.000000 -1.000000 0.000000
v 0.000000 -1.000000 -1.000000
v -0.841330 -1.000000 -0.273365
v -0.273365 -1.000000 -0.841330
v -0.951057 -1.000000 -0.309017
v -0.309017 -1.000000 -0.951057
v -0.519971 -1.000000 -0.715678
v -0.715678 -1.000000 -0.519971
v -0.809017 -1.000000 -0.587785
v -0.587785 -1.000000 -0.809017
vt 0.500000 0.312500
vt 0.500000 0.293752
vt 0.500000 1.000000
vt 0.500000 0.981252
vt 0.537500 0.359541
vt 0.525000 0.359541
vt 0.525000 0.641399
vt 0.537500 0.641399
vt 0.343750 0.843750
vt 0.351397 0.795466
vt 0.368542 0.800316
vt 0.361777 0.843029
vt 0.525000 0.312500
vt 0.537500 0.312500
vt 0.537500 0.688440
vt 0.525000 0.688440
vt 0.373591 0.751909
vt 0.388175 0.761784
vt 0.550000 0.359541
vt 0.550000 0.641399
vt 0.550000 0.312500
vt 0.550000 0.688440
vt 0.408159 0.717341
vt 0.418755 0.731204
vt 0.451716 0.695147
vt 0.457287 0.711571
vt 0.500000 0.687500
vt 0.500000 0.704806
vt 0.512500 0.359541
vt 0.512500 0.641399
vt 0.512500 0.312500
vt 0.512500 0.688440
vt 0.451716 0.992353
vt 0.457287 0.974487
vt 0.351397 0.892034
vt 0.368542 0.885742
vt 0.451716 0.304853
vt 0.457287 0.286987
vt 0.388175 0.924274
vt 0.373591 0.935591
vt 0.408159 0.970159
vt 0.418755 0.954854
vt 0.500000 0.312500
vt 0.500000 0.688440
vt 0.408159 0.282659
vt 0.418755 0.267354
vt 0.500000 0.359541
vt 0.487500 0.359541
vt 0.487500 0.641399
vt 0.500000 0.641399
vt 0.425000 0.359541
vt 0.425000 0.641399
vt 0.487500 0.312500
vt 0.487500 0.688440
vt 0.425000 0.312500
vt 0.425000 0.688440
vt 0.475000 0.359541
vt 0.475000 0.641399
vt 0.437500 0.359541
vt 0.437500 0.641399
vt 0.373591 0.248091
vt 0.388175 0.236774
vt 0.475000 0.312500
vt 0.475000 0.688440
vt 0.437500 0.312500
vt 0.437500 0.688440
vt 0.450000 0.359541
vt 0.450000 0.641399
vt 0.462500 0.359541
vt 0.462500 0.641399
vt 0.462500 0.312500
vt 0.462500 0.688440
vt 0.450000 0.312500
vt 0.450000 0.688440
vt 0.351397 0.204534
vt 0.368542 0.198242
vt 0.500000 0.017306
vt 0.500000 -0.000000
vt 0.457287 0.024071
vt 0.451716 0.007647
vt 0.368542 0.112816
vt 0.351397 0.107966
vt 0.373591 0.064409
vt 0.388175 0.074284
vt 0.418755 0.043704
vt 0.408159 0.029841
vt 0.343750 0.156250
vt 0.361777 0.155529
vn 0.309017 0.000000 -0.951057
vn 0.587785 0.000000 -0.809017
vn 0.587785 0.000000 -0.809017
vn 0.309017 0.000000 -0.951057
vn 0.000000 1.000000 0.000000
vn 0.000000 1.000000 0.000000
vn 0.000000 1.000000 0.000000
vn 0.000000 1.000000 0.000000
vn -0.587785 0.000000 0.809017
vn -0.309017 0.000000 0.951057
vn -0.309017 0.000000 0.951057
vn -0.587785 0.000000 0.809017
vn 0.000000 1.000000 0.000000
vn 0.000000 1.000000 0.000000
vn 0.156434 0.000000 -0.987688
vn 0.156434 0.000000 -0.987688
vn -0.156434 0.000000 0.987688
vn -0.156434 0.000000 0.987688
vn 0.000000 1.000000 0.000000
vn 0.000000 1.000000 0.000000
vn 0.000000 1.000000 0.000000
vn 0.000000 1.000000 0.000000
vn 0.000000 1.000000 0.000000
vn 0.000000 1.000000 0.000000
vn 0.809017 0.000000 -0.587785
vn 0.809017 0.000000 -0.587785
vn -0.809017 0.000000 0.587785
vn -0.809017 0.000000 0.587785
vn 0.000000 1.000000 0.000000
vn 0.000000 1.000000 0.000000
vn 0.000000 1.000000 0.000000
vn 0.000000 1.000000 0.000000
vn 0.000000 1.000000 0.000000
vn 0.000000 1.000000 0.000000
vn 0.000000 -1.000000 0.000000
vn 0.000000 -1.000000 0.000000
vn 0.000000 -1.000000 0.000000
vn 0.000000 -1.000000 0.000000
vn 0.000000 1.000000 0.000000
vn 0.000000 1.000000 0.000000
vn 0.000000 1.000000 0.000000
vn 0.000000 1.000000 0.000000
vn -0.951057 0.000000 0.309017
vn -0.951057 0.000000 0.309017
vn 0.000000 -1.000000 0.000000
vn 0.000000 -1.000000 0.000000
vn 0.951057 0.000000 -0.309017
vn 1.000000 0.000000 0.000000
vn 1.000000 0.000000 0.000000
vn 0.951057 0.000000 -0.309017
vn -1.000000 0.000000 0.000000
vn -1.000000 0.000000 0.000000
vn 0.951057 0.000000 0.309017
vn 0.951057 0.000000 0.309017
vn 0.309017 0.000000 0.951056
vn 0.156435 0.000000 0.987688
vn 0.156435 0.000000 0.987688
vn 0.309017 0.000000 0.951056
vn 0.000000 -1.000000 0.000000
vn 0.000000 -1.000000 0.000000
vn -0.951057 0.000000 -0.309017
vn -0.951057 0.000000 -0.309017
vn -0.156435 0.000000 -0.987688
vn -0.309017 0.000000 -0.951056
vn -0.309017 0.000000 -0.951056
vn -0.156435 0.000000 -0.987688
vn 0.587785 0.000000 0.809017
vn 0.587785 0.000000 0.809017
vn 0.809017 0.000000 0.587785
vn 0.809017 0.000000 0.587785
vn -0.809017 0.000000 -0.587785
vn -0.809017 0.000000 -0.587785
vn -0.587785 0.000000 -0.809017
vn -0.587785 0.000000 -0.809017
vn 0.000000 -1.000000 0.000000
vn 0.000000 -1.000000 0.000000
vn 0.000000 -1.000000 0.000000
vn 0.000000 -1.000000 0.000000
vn 0.000000 -1.000000 0.000000
vn 0.000000 -1.000000 0.000000
vn 0.000000 -1.000000 0.000000
vn 0.000000 -1.000000 0.000000
vn 0.000000 -1.000000 0.000000
vn 0.000000 -1.000000 0.000000
vn 0.000000 -1.000000 0.000000
vn 0.000000 -1.000000 0.000000
vn 0.000000 -1.000000 0.000000
vn 0.000000 -1.000000 0.000000
s 1
g pCylinder3
usemtl initialShadingGroup
f 5/5/1 6/6/2 7/7/3 8/8/4
s 2
f 9/9/5 10/10/6 11/11/7 12/12/8
s 3
f 13/13/9 14/14/10 15/15/11 16/16/12
s 2
f 11/11/7 10/10/6 17/17/13 18/18/14
s 1
f 2/19/15 5/5/1 8/8/4 19/20/16
s 3
f 14/14/10 1/21/17 20/22/18 15/15/11
s 2
f 18/18/14 17/17/13 16/23/19 7/24/20
f 7/24/20 16/23/19 15/25/21 8/26/22
f 8/26/22 15/25/21 20/27/23 19/28/24
s 1
f 6/6/2 21/29/25 18/30/26 7/7/3
s 3
f 22/31/27 13/13/9 16/16/12 17/32/28
s 2
f 4/4/29 3/3/30 23/33/31 24/34/32
f 25/35/33 9/9/5 12/12/8 26/36/34
s 5
f 2/2/35 1/1/36 14/37/37 5/38/38
s 2
f 27/39/39 28/40/40 25/35/33 26/36/34
f 24/34/32 23/33/31 29/41/41 30/42/42
f 30/42/42 29/41/41 28/40/40 27/39/39
s 3
f 31/43/43 22/31/27 17/32/28 10/44/44
s 5
f 5/38/38 14/37/37 13/45/45 6/46/46
s 1
f 32/47/47 33/48/48 12/49/49 11/50/50
s 3
f 35/53/51 31/43/43 10/44/44 9/54/52
s 1
f 21/29/25 32/47/47 11/50/50 18/30/26
f 33/48/48 37/57/53 26/58/54 12/49/49
f 38/59/55 34/51/56 4/52/57 24/60/58
s 5
f 6/46/46 13/45/45 22/61/59 21/62/60
s 3
f 39/63/61 35/53/51 9/54/52 25/64/62
f 36/55/63 40/65/64 23/66/65 3/56/66
s 1
f 41/67/67 38/59/55 24/60/58 30/68/68
f 42/69/69 41/67/67 30/68/68 27/70/70
s 3
f 43/71/71 39/63/61 25/64/62 28/72/72
f 40/65/64 44/73/73 29/74/74 23/66/65
f 44/73/73 43/71/71 28/72/72 29/74/74
s 5
f 21/62/60 22/61/59 31/75/75 32/76/76
f 38/79/77 40/80/78 36/78/79 34/77/80
f 37/81/81 39/82/82 43/83/83 42/84/84
f 41/85/85 44/86/86 40/80/78 38/79/77
f 42/84/84 43/83/83 44/86/86 41/85/85
s 1
f 37/57/53 42/69/69 27/70/70 26/58/54
s 5
f 31/75/75 35/87/87 33/88/88 32/76/76
f 35/87/87 39/82/82 37/81/81 33/88/88
